<?xml version="1.0" standalone="no"?>
<!DOCTYPE svg PUBLIC "-//W3C//DTD SVG 20010904//EN"
 "http://www.w3.org/TR/2001/REC-SVG-20010904/DTD/svg10.dtd">
<svg version="1.0" xmlns="http://www.w3.org/2000/svg"
 width="200.000000pt" height="200.000000pt" viewBox="0 0 200.000000 200.000000"
 preserveAspectRatio="xMidYMid meet">
<metadata>
Created by potrace 1.11, written by Peter Selinger 2001-2013
</metadata>
<g transform="translate(0.000000,200.000000) scale(0.100000,-0.100000)"
fill="#000000" stroke="none">
<path d="M0 1000 l0 -1000 1000 0 1000 0 0 730 c0 402 -3 730 -7 730 -13 0
-351 -179 -453 -240 -343 -206 -669 -453 -925 -702 l-71 -68 -208 2 -209 3
-20 27 c-25 34 -29 29 130 168 437 383 1008 715 1651 960 l112 43 0 174 0 173
-1000 0 -1000 0 0 -1000z m791 374 c93 -69 169 -128 169 -129 0 -2 -71 -40
-157 -85 -111 -57 -162 -79 -174 -73 -9 4 -127 89 -261 188 -231 169 -245 181
-235 202 10 23 11 23 250 23 l240 0 168 -126z m857 -620 c185 -136 339 -249
341 -250 2 -2 -1 -15 -7 -29 l-12 -25 -231 0 -231 0 -229 166 c-127 92 -228
171 -227 176 3 7 247 206 256 208 1 0 154 -111 340 -246z"/>
</g>
</svg>
