<?xml version="1.0" encoding="UTF-8"?>
<svg width="2479px" height="307px" viewBox="0 0 2479 307" version="1.1" xmlns="http://www.w3.org/2000/svg" xmlns:xlink="http://www.w3.org/1999/xlink">
    <title>spacex</title>
    <g id="Page-1" stroke="none" stroke-width="1" fill="none" fill-rule="evenodd">
        <g id="spacex" fill="#FFFFFF" fill-rule="nonzero">
            <path d="M578.503,113.719 L369.261,113.719 L361.787,119.698 L361.787,305.773 L419.329,305.773 L419.329,235.527 L424.559,230.297 L578.501,230.297 C617.359,230.297 635.295,219.836 635.295,192.934 L635.295,150.338 C635.295,124.181 617.361,113.719 578.503,113.719 M578.503,182.469 C578.503,195.172 570.282,197.414 551.6,197.414 L425.308,197.414 L419.329,192.184 L419.329,152.578 L424.559,147.347 L551.598,147.347 C569.534,147.347 578.5,149.589 578.5,162.292 L578.503,182.469 L578.503,182.469 Z M741.412,148.841 L791.48,222.075 L788.491,228.801 L677.892,228.801 L649.495,263.924 L813.898,263.924 L825.855,270.649 L851.263,305.772 L917.772,305.772 L772.051,111.477 M1401.268,268.407 L1401.268,216.098 L1407.247,210.866 L1518.594,210.866 L1518.594,177.985 L1342.232,177.985 L1342.232,305.772 L1602.29,305.772 L1602.29,272.891 L1407.994,272.891 M1342.232,113.719 L1604.531,113.719 L1604.531,149.589 L1342.232,149.589 L1342.232,113.719 Z M1050.043,148.094 L1261.525,148.094 C1258.536,121.192 1241.348,113.719 1199.5,113.719 L1047.801,113.719 C999.975,113.719 985.029,122.687 985.029,159.303 L985.029,260.934 C985.029,296.805 999.975,306.52 1047.801,306.52 L1199.5,306.52 C1242.096,306.52 1258.536,298.299 1260.031,270.649 L1050.043,270.649 L1044.064,264.67 L1044.064,152.578 M219.803,188.448 L66.609,188.448 L62.125,183.218 L62.125,150.337 L66.609,146.601 L273.608,146.601 L276.597,139.875 C269.871,121.939 251.189,112.973 217.561,112.973 L73.334,112.973 C25.508,112.973 10.562,121.94 10.562,158.556 L10.562,180.228 C10.562,216.099 25.508,225.814 73.334,225.814 L226.529,225.814 L231.012,230.296 L231.012,264.671 L227.276,269.903 L6.078,269.903 C6.078,269.903 0.848,272.891 0.848,273.639 C4.584,299.047 21.772,305.772 62.872,305.772 L219.804,305.772 C267.63,305.772 283.324,296.805 283.324,260.188 L283.324,234.032 C283.324,198.163 267.63,188.448 219.803,188.448 M1769.682,112.972 L1682.996,112.972 L1678.513,121.939 L1774.165,192.185 C1792.101,181.722 1812.277,171.261 1833.201,160.798 M1847.4,244.495 L1931.844,305.772 L2018.53,305.772 L2022.266,297.551 L1896.721,205.635 C1880.281,218.338 1863.094,231.043 1847.4,244.495" id="Shape"></path>
            <path d="M1756.978,305.772 L1678.513,305.772 L1671.786,295.309 C1724.845,243.747 1962.482,24.044 2478.86,0.878 C2478.86,0.878 2046.179,15.823 1756.978,305.772" id="Path"></path>
        </g>
    </g>
</svg>